<?xml version="1.0" encoding="UTF-8" standalone="no"?>
<!DOCTYPE svg PUBLIC "-//W3C//DTD SVG 1.1//EN" "http://www.w3.org/Graphics/SVG/1.1/DTD/svg11.dtd">
<svg width="100%" height="100%" viewBox="0 0 24 24" version="1.1" xmlns="http://www.w3.org/2000/svg" xmlns:xlink="http://www.w3.org/1999/xlink" xml:space="preserve" xmlns:serif="http://www.serif.com/" style="fill-rule:evenodd;clip-rule:evenodd;stroke-linejoin:round;stroke-miterlimit:2;">
    <path d="M5.406,12.94C5.362,12.633 5.339,12.319 5.339,12C5.339,11.664 5.364,11.335 5.413,11.013L3.161,9.116C2.729,8.751 2.62,8.13 2.902,7.64L3.672,6.307C3.956,5.815 4.554,5.599 5.087,5.796L7.857,6.818C8.36,6.422 8.922,6.097 9.528,5.86L10.044,2.962C10.144,2.405 10.628,2 11.193,2L12.732,2C13.301,2 13.786,2.409 13.882,2.969L14.382,5.878C14.985,6.12 15.545,6.448 16.045,6.848L18.816,5.846C19.347,5.654 19.94,5.87 20.223,6.36L20.993,7.693C21.277,8.185 21.165,8.81 20.728,9.174L18.459,11.06C18.503,11.367 18.525,11.681 18.525,12C18.525,12.336 18.5,12.665 18.452,12.987L20.703,14.884C21.136,15.249 21.245,15.87 20.962,16.36L20.192,17.693C19.908,18.185 19.311,18.401 18.778,18.204L16.008,17.182C15.504,17.578 14.942,17.903 14.337,18.14L13.82,21.038C13.721,21.595 13.237,22 12.671,22L11.132,22C10.564,22 10.078,21.591 9.982,21.031L9.483,18.122C8.879,17.88 8.32,17.552 7.819,17.152L5.049,18.154C4.517,18.346 3.924,18.13 3.641,17.64L2.872,16.307C2.588,15.815 2.699,15.19 3.136,14.826L5.406,12.94ZM11.932,8.568C10,8.568 8.432,10.136 8.432,12.068C8.432,14 10,15.568 11.932,15.568C13.864,15.568 15.432,14 15.432,12.068C15.432,10.136 13.864,8.568 11.932,8.568Z" style="fill:rgb(82,95,75);"/>
</svg>
